<svg viewBox="0 0 800 600" xmlns="http://www.w3.org/2000/svg" xmlns:xlink="http://www.w3.org/1999/xlink"><clipPath id="a"><path d="m645.59 501.45c-21.9 15.65-49.81 5-49.81 5v-8.17c-22.36.35-46-6.78-46-6.78-1.49-17 1.32-37.8 3.05-48.39.7-4.27 1.23-6.87 1.23-6.87 13.33-4.34 90.28-2.8 90.28-2.8.29 2.52.51 5.48.7 8.74 1.34 22.61.55 59.27.55 59.27z"/></clipPath><clipPath id="b"><path d="m382.44 454.37c-6.12 11.55-11.82 37.78-14.13 49.6 0 0 20 7.88 51.76 6.79s38.18-6.66 38.18-6.66 3.81-37.63-6.25-53.53z"/></clipPath><clipPath id="c"><path d="m164.88 297.31c-5.74 14-15.51 52.36-22.72 103.17 0 0 32.37-2 48.24 9.88.45-.75 8.39-47 9.29-48.67s6.44-1.94 7.79-1.05 31.65 19.45 35 20.52c18.61 5.84 39.52-25.53 29.84-37.16-4.13-5-15.58-15.87-32.65-45.07z"/></clipPath><g stroke="#ddd"><path d="m477.59 142.67.21 6.59a1.43 1.43 0 0 0 .65 1.14l5.55 3.6a1.41 1.41 0 0 1 -.28 2.51l-6.2 2.24a1.42 1.42 0 0 0 -.89 1l-1.63 6.31a1.41 1.41 0 0 1 -2.47.51l-4.05-5.21a1.42 1.42 0 0 0 -1.2-.54l-6.58.39a1.41 1.41 0 0 1 -1.25-2.2l3.7-5.46a1.45 1.45 0 0 0 .15-1.31l-2.4-6.14a1.41 1.41 0 0 1 1.7-1.87l6.34 1.83a1.41 1.41 0 0 0 1.28-.26l5.1-4.18a1.42 1.42 0 0 1 2.27 1.05z" fill="#ddd" stroke-miterlimit="10"/><path d="m622 206 4.84 4.48a1.44 1.44 0 0 0 1.27.34l6.43-1.45a1.41 1.41 0 0 1 1.6 2l-2.76 6a1.41 1.41 0 0 0 .06 1.31l3.37 5.67a1.41 1.41 0 0 1 -1.38 2.12l-6.54-.77a1.4 1.4 0 0 0 -1.23.47l-4.35 4.95a1.4 1.4 0 0 1 -2.44-.65l-1.29-6.47a1.41 1.41 0 0 0 -.83-1l-6-2.61a1.4 1.4 0 0 1 -.14-2.52l5.76-3.22a1.42 1.42 0 0 0 .71-1.11l.61-6.56a1.41 1.41 0 0 1 2.31-.98z" fill="#ddd" stroke-miterlimit="10"/><path d="m145.81 162.81h-24.68a12.3 12.3 0 0 1 0-24.59h24.68" fill="none" stroke-miterlimit="10"/><path d="m145.52 378.68h-5.38a16 16 0 1 1 0-32.06h5.67" fill="none" stroke-miterlimit="10"/><rect fill="none" height="32.07" rx="15.76" stroke-miterlimit="10" width="65.66" x="471.58" y="450.23"/><rect fill="none" height="11.15" rx="5.48" stroke-miterlimit="10" width="60.89" x="618.83" y="470.63"/><path d="m671.94 134.93h6.92a12.3 12.3 0 1 1 0 24.59h-6.92" fill="none" stroke-miterlimit="10"/><path d="m640.38 436.16h-463a31.6 31.6 0 0 1 -31.56-31.56v-283.9a31.59 31.59 0 0 1 31.56-31.56h463a31.59 31.59 0 0 1 31.56 31.56v283.9a31.59 31.59 0 0 1 -31.56 31.56z" fill="none" stroke-linecap="round" stroke-linejoin="round" stroke-width="2"/><rect fill="none" height="302.24" rx="9.17" stroke-miterlimit="10" stroke-width="2" width="481.36" x="168.2" y="111.53"/><path d="m623.16 315.54v33.42h-84.58v-119.15" fill="none" stroke-linecap="round" stroke-linejoin="round"/><path d="m623.16 231.23v18.67" fill="none" stroke-linecap="round" stroke-linejoin="round"/><path d="m553.47 214.51h64.88" fill="none" stroke-linecap="round" stroke-linejoin="round"/><path d="m584.92 230.45h17.49" fill="none" stroke-linecap="round" stroke-linejoin="round"/><path d="m584.92 238.64h14.15" fill="none" stroke-linecap="round" stroke-linejoin="round"/><path d="m553.1 279.27h12.9" fill="none" stroke-linecap="round" stroke-linejoin="round"/><path d="m553.1 290.53h6.95" fill="none" stroke-linecap="round" stroke-linejoin="round"/><path d="m595.51 249.9h42.97v65.64h-42.97z" fill="none" stroke-linecap="round" stroke-linejoin="round"/><path d="m611.26 261.18h11.9" fill="none" stroke-linecap="round" stroke-linejoin="round"/><path d="m616.34 269.98h6.82" fill="none" stroke-linecap="round" stroke-linejoin="round"/><path d="m382.83 301.55c2.54 5.93-12.71 17-21.34 11.86-4.93 7.31-19.77 2.29-16.23-2-9.25.81-19.67-4-15.46-11.95-11.47-4.45-6-14.63 5.39-14.87-9.84-14-2-24.57 14.1-23.53-.17-17 20.78-16.27 22.43 1.3 12.28-4.36 22.47 8.28 14.28 18.23 11.23 5.41 6.55 17.33-3.17 20.96z" fill="none" stroke-linecap="round" stroke-linejoin="round"/><path d="m346.49 270.23h28.31s4.3 15.78-2 32.09l-29.67-.46s8-17.39 3.36-31.63z" fill="none" stroke-linecap="round" stroke-linejoin="round"/><path d="m352.87 278.23h14.41" fill="none" stroke-linecap="round" stroke-linejoin="round"/><path d="m353.79 284.48h10.89" fill="none" stroke-linecap="round" stroke-linejoin="round"/><path d="m353.08 290.45h15.11" fill="none" stroke-linecap="round" stroke-linejoin="round"/><path d="m545.25 223.69c-3.18 7.18-14.78 9.8-21.39 5.23-3.07 7.62-17.09 9.29-24.22 5.64 2.12-9.64-3.61-15.47-10.88-15.61-2.13-6.21-.5-13.06 4.9-15.34-4.66-9.72 3.26-15 11.51-10.54-.25-9.63 11.75-20 24.49-9.39 9.55-7.25 22.69 3.27 16.81 17.72 11.19 2.78 8.33 23.76-1.22 22.29z" fill="#ddd" stroke-miterlimit="10"/><path d="m251.11 137.22h44.82c-2 13.78 1 36.37 9.95 54.12h-49.37s-14.57-11.8-5.4-54.12z" fill="none" stroke-linecap="round" stroke-linejoin="round" stroke-width="2"/><path d="m416.89 172.15 37.36.08s5.43 18.39-6.5 38.26l-40.43-1.64s12.33-17.85 9.57-36.7z" fill="none" stroke-linecap="round" stroke-linejoin="round"/><path d="m423.71 181.1h24.4" fill="none" stroke-linecap="round" stroke-linejoin="round"/><path d="m424.06 189.28h19.47" fill="none" stroke-linecap="round" stroke-linejoin="round"/><path d="m423.71 199.99h9.2" fill="none" stroke-linecap="round" stroke-linejoin="round"/><path d="m434.99 199.99h6.12" fill="none" stroke-linecap="round" stroke-linejoin="round"/><path d="m317.28 124.47 74.13 1s5.5 30.56-5.85 70.29h-76s12.66-34.42 7.72-71.29z" fill="none" stroke-linecap="round" stroke-linejoin="round"/><path d="m358.4 152.5 21.46.66" fill="none" stroke-linecap="round" stroke-linejoin="round"/><path d="m367.59 146.82 13.15.41" fill="none" stroke-linecap="round" stroke-linejoin="round"/><path d="m377.56 141.5 4.17.13" fill="none" stroke-linecap="round" stroke-linejoin="round"/><path d="m374.36 134.73 7.37.23" fill="none" stroke-linecap="round" stroke-linejoin="round"/><path d="m356.76 165.12h20.81v19.33h-20.81z" fill="#ddd" stroke-miterlimit="10"/><path d="m469.24 231.8h18.39" fill="none" stroke-linecap="round" stroke-linejoin="round"/><path d="m465.28 239.9h18.39" fill="none" stroke-linecap="round" stroke-linejoin="round"/><path d="m462.52 248.61h18.39" fill="none" stroke-linecap="round" stroke-linejoin="round"/><path d="m496.33 252.38c3.36 10.67-12.84 17.78-20.35 6.92-7.71 13.23-38 4.93-24.51-10.57-9.53-.88-7.93-19.36 3-17.8-5.72-16.68 17.4-22.79 23.72-8.18a17 17 0 0 1 10.6-3.8c7.27.14 13 6 10.88 15.61-.14.66-.32 1.33-.54 2 9.45 3.77 4.11 15.23-2.8 15.82z" fill="none" stroke-linecap="round" stroke-linejoin="round"/></g><path d="m511.4 197.18h19.74" fill="none" stroke="#f9f9f9" stroke-linecap="round" stroke-linejoin="round"/><path d="m510.91 205.38h16.23" fill="none" stroke="#f9f9f9" stroke-linecap="round" stroke-linejoin="round"/><path d="m510.35 216.37h11.95" fill="none" stroke="#f9f9f9" stroke-linecap="round" stroke-linejoin="round"/><path d="m551.23 233.24h24.22v33.31h-24.22z" fill="#ededed" stroke="#ddd" stroke-linecap="round" stroke-linejoin="round"/><path d="m445.79 169.54 14.02 14.91 4.71-5.99-13.44-13.34z" fill="#ddd" stroke="#ddd" stroke-miterlimit="10"/><path d="m409.64 177.1 14.07-15 5.42 5.02-13.82 16.34z" fill="#ddd" stroke="#ddd" stroke-miterlimit="10"/><path d="m587.68 254.39 5.45 4.69s13.32-14.17 13.07-14.17-6.06-4.34-6.06-4.34z" fill="#ddd" stroke="#ddd" stroke-miterlimit="10"/><path d="m626.61 246.36 5.98-5.12 14.26 15.11-6.58 5.64z" fill="#ddd" stroke="#ddd" stroke-miterlimit="10"/><path d="m628.77 172.46a36.67 36.67 0 0 1 -71-11.38 27.23 27.23 0 1 0 34.15-37.18c-.7-.26-1.39-.49-2.09-.68a36.68 36.68 0 0 1 38.93 49.24z" fill="#ededed" stroke="#ddd" stroke-linecap="round" stroke-linejoin="round"/><path d="m248.14 125 5 4.31a1.39 1.39 0 0 0 1.27.29l6.38-1.66a1.41 1.41 0 0 1 1.66 1.91l-2.56 6.08a1.4 1.4 0 0 0 .12 1.3l3.55 5.56a1.41 1.41 0 0 1 -1.3 2.16l-6.57-.55a1.39 1.39 0 0 0 -1.21.51l-4.18 5.09a1.42 1.42 0 0 1 -2.47-.57l-1.5-6.42a1.42 1.42 0 0 0 -.86-1l-6.14-2.4a1.41 1.41 0 0 1 -.22-2.52l5.64-3.41a1.41 1.41 0 0 0 .68-1.13l.38-6.58a1.41 1.41 0 0 1 2.33-.97z" fill="#ddd" stroke="#ddd" stroke-miterlimit="10"/><path d="m185.66 496.2 6.34-25.34h61.37l-6.37 25.34m12.65 0 67-267.16a6.13 6.13 0 1 0 -11.89-3l-6.53 26.06h-61.38l5.78-23.1a6.13 6.13 0 1 0 -11.89-3l-67.74 270.2m132.9-234.9-10.29 41h-61.35l10.29-41zm-12.59 50.2-18.9 75.5h-61.41l19-75.5zm-37.62 150.18h-61.37l16.42-65.51h61.37z" fill="#ededed" stroke="#ddd" stroke-linecap="round" stroke-linejoin="round" stroke-width="2"/><path d="m677.63 408.86c.83 5.31-5.12 10.66-9.5 12.85 0 0-5.11-11.43-4.74-11.43s9.02-4.91 14.24-1.42z" fill="#fcc71f"/><path d="m645.59 501.45c-21.9 15.65-49.81 5-49.81 5v-8.17c-22.36.35-46-6.78-46-6.78-1.49-17 1.32-37.8 3.05-48.39.7-4.27 1.23-6.87 1.23-6.87 13.33-4.34 90.28-2.8 90.28-2.8.29 2.52.51 5.48.7 8.74 1.34 22.61.55 59.27.55 59.27z" fill="#a7caf0"/><g style="clip-path:url(#a);fill:none;stroke-linecap:round;stroke-linejoin:round;stroke:#fff;stroke-width:.75"><path d="m691.51 424.8h5.15v5.15h-5.15z"/><path d="m666.42 424.8h5.15v5.15h-5.15z"/><path d="m641.34 424.8h5.15v5.15h-5.15z"/><path d="m616.25 424.8h5.15v5.15h-5.15z"/><path d="m591.17 424.8h5.15v5.15h-5.15z"/><path d="m566.09 424.8h5.15v5.15h-5.15z"/><path d="m541 424.8h5.15v5.15h-5.15z"/><path d="m691.51 456.63h5.15v5.15h-5.15z"/><path d="m666.42 456.63h5.15v5.15h-5.15z"/><path d="m641.34 456.63h5.15v5.15h-5.15z"/><path d="m616.25 456.63h5.15v5.15h-5.15z"/><path d="m591.17 456.63h5.15v5.15h-5.15z"/><path d="m566.09 456.63h5.15v5.15h-5.15z"/><path d="m541 456.63h5.15v5.15h-5.15z"/><path d="m691.51 488.45h5.15v5.15h-5.15z"/><path d="m666.42 488.45h5.15v5.15h-5.15z"/><path d="m641.34 488.45h5.15v5.15h-5.15z"/><path d="m616.25 488.45h5.15v5.15h-5.15z"/><path d="m591.17 488.45h5.15v5.15h-5.15z"/><path d="m566.09 488.45h5.15v5.15h-5.15z"/><path d="m541 488.45h5.15v5.15h-5.15z"/><path d="m691.51 520.28h5.15v5.15h-5.15z"/><path d="m666.42 520.28h5.15v5.15h-5.15z"/><path d="m641.34 520.28h5.15v5.15h-5.15z"/><path d="m616.25 520.28h5.15v5.15h-5.15z"/><path d="m591.17 520.28h5.15v5.15h-5.15z"/><path d="m566.09 520.28h5.15v5.15h-5.15z"/><path d="m541 520.28h5.15v5.15h-5.15z"/><path d="m691.51 552.11h5.15v5.15h-5.15z"/><path d="m666.42 552.11h5.15v5.15h-5.15z"/><path d="m641.34 552.11h5.15v5.15h-5.15z"/><path d="m616.25 552.11h5.15v5.15h-5.15z"/><path d="m591.17 552.11h5.15v5.15h-5.15z"/><path d="m566.09 552.11h5.15v5.15h-5.15z"/><path d="m541 552.11h5.15v5.15h-5.15z"/><path d="m523.74 406.31h10.29v10.29h-10.29z"/><path d="m549.43 406.31h10.29v10.29h-10.29z"/><path d="m575.13 406.31h10.29v10.29h-10.29z"/><path d="m600.83 406.31h10.29v10.29h-10.29z"/><path d="m626.53 406.31h10.29v10.29h-10.29z"/><path d="m652.23 406.31h10.29v10.29h-10.29z"/><path d="m677.93 406.31h10.29v10.29h-10.29z"/><path d="m703.63 406.31h10.29v10.29h-10.29z"/><path d="m523.74 438.14h10.29v10.29h-10.29z"/><path d="m549.43 438.14h10.29v10.29h-10.29z"/><path d="m575.13 438.14h10.29v10.29h-10.29z"/><path d="m600.83 438.14h10.29v10.29h-10.29z"/><path d="m626.53 438.14h10.29v10.29h-10.29z"/><path d="m652.23 438.14h10.29v10.29h-10.29z"/><path d="m677.93 438.14h10.29v10.29h-10.29z"/><path d="m703.63 438.14h10.29v10.29h-10.29z"/><path d="m523.74 469.97h10.29v10.29h-10.29z"/><path d="m549.43 469.97h10.29v10.29h-10.29z"/><path d="m575.13 469.97h10.29v10.29h-10.29z"/><path d="m600.83 469.97h10.29v10.29h-10.29z"/><path d="m626.53 469.97h10.29v10.29h-10.29z"/><path d="m652.23 469.97h10.29v10.29h-10.29z"/><path d="m677.93 469.97h10.29v10.29h-10.29z"/><path d="m703.63 469.97h10.29v10.29h-10.29z"/><path d="m523.74 501.79h10.29v10.29h-10.29z"/><path d="m549.43 501.79h10.29v10.29h-10.29z"/><path d="m575.13 501.79h10.29v10.29h-10.29z"/><path d="m600.83 501.79h10.29v10.29h-10.29z"/><path d="m626.53 501.79h10.29v10.29h-10.29z"/><path d="m652.23 501.79h10.29v10.29h-10.29z"/><path d="m677.93 501.79h10.29v10.29h-10.29z"/><path d="m703.63 501.79h10.29v10.29h-10.29z"/><path d="m523.74 533.62h10.29v10.29h-10.29z"/><path d="m549.43 533.62h10.29v10.29h-10.29z"/><path d="m575.13 533.62h10.29v10.29h-10.29z"/><path d="m600.83 533.62h10.29v10.29h-10.29z"/><path d="m626.53 533.62h10.29v10.29h-10.29z"/><path d="m652.23 533.62h10.29v10.29h-10.29z"/><path d="m677.93 533.62h10.29v10.29h-10.29z"/><path d="m703.63 533.62h10.29v10.29h-10.29z"/></g><path d="m645.07 442.22a237.94 237.94 0 0 1 -39 4.81c-6.74.33-13.59.42-20.24.24-12.3-.34-23.92-1.61-33-4.12.7-4.27 1.23-6.87 1.23-6.87 4.72-1.53 17.38-2.34 31.78-2.73 6.58-.18 13.52-.27 20.24-.31 20.17-.13 38.26.24 38.26.24.32 2.52.54 5.52.73 8.74z" fill="#683f1d"/><path d="m606.11 433.24v13.76c-6.74.33-13.59.42-20.24.24v-13.69c6.58-.18 13.52-.27 20.24-.31z" fill="#fff"/><path d="m595.78 498.32.21-22.11" fill="none" stroke="#4bbac2" stroke-linecap="round" stroke-linejoin="round" stroke-width=".75"/><path d="m677.63 408.86s-3 .56-7.45 1.88a98.37 98.37 0 0 0 -20.9 8.75c-1.22.7-6.54 6.35-11.85 11.18-3.93 3.58-7.87 6.71-10.12 7a220.6 220.6 0 0 1 -34.44 2.39q-3.2 0-6.18-.17a202.45 202.45 0 0 1 -32.6-3.65c.62 0-.32-8.76-1.21-17.28-.22-2.18-.44-4.35-.64-6.35-.31.21-19.23-13-20.86-14.19l-.11-.08s.09-.49.29-1.38c1.11-5 5.5-22.69 14.25-36.29a51.51 51.51 0 0 1 6.53-8.31c12.81-13 27.9-17.2 43.17-18.38s17.08-1.55 17.08-1.55c13.7 4.75 29 7.59 40 20.79a59.27 59.27 0 0 1 6.29 9.85c9.45 17.6 18.75 45.79 18.75 45.79z" fill="#fed81d"/><path d="m560.2 372.3c-2.25 9.34-6.47 25.07-6.3 41.55 0-.41-20.89-14.25-22.52-15.39l.18-1.46c6.52-3.07 10.66-1 14.25.51 8.09 3.31 4.11-23.41 14.25-25.19z" fill="#fcc71f"/><path d="m637.43 430.67c-3.93 3.58-7.87 6.71-10.12 7a220.6 220.6 0 0 1 -34.44 2.39q-3.2 0-6.18-.17c3.84-5.81 12-15.36 23.67-13.13 16.47 3.17 19.52-23.89 16.47-35.4s4.67-16.19 4.67-16.19a120 120 0 0 0 2.63 21c0 .2.09.41.14.62 1.83 8.76 2.73 24.21 3.16 33.88z" fill="#fcc71f"/><path d="m658.9 363.11c-13.83-3.37-27.41-2.26-33.36 3.54-12.12 11.86-35.66 27.89-49.25 10.68-8.8-11.15-18.45-18.15-30.48-16.62a51.51 51.51 0 0 1 6.53-8.31c12.81-13 27.9-17.2 43.17-18.38s17.08-1.55 17.08-1.55c13.7 4.75 29 7.59 40 20.79a59.27 59.27 0 0 1 6.31 9.85z" fill="#ffe05c"/><path d="m634.93 399.72c-.24-1-.45-1.93-.66-2.89 0-.21-.1-.42-.14-.62a120 120 0 0 1 -2.63-21 85.2 85.2 0 0 1 .16-8.56" fill="none" stroke="#f7ad2b" stroke-linecap="round" stroke-linejoin="round" stroke-width=".75"/><path d="m637.74 347.15a22.45 22.45 0 0 0 -4.27 8.63" fill="none" stroke="#f7ad2b" stroke-linecap="round" stroke-linejoin="round" stroke-width=".75"/><path d="m596.62 353c-1.49 7-.85 16.69-.85 16.69" fill="none" stroke="#f7ad2b" stroke-linecap="round" stroke-linejoin="round" stroke-width=".75"/><path d="m553.9 411.77c0-19.06 8-46.26 8-46.26" fill="none" stroke="#f7ad2b" stroke-linecap="round" stroke-linejoin="round" stroke-width=".75"/><path d="m586.54 334c-5.21 0-6.44 14.05-4.18 20.93 1.87 5.7 10-4.3 16.14-10.28z" fill="#fff"/><path d="m595.09 344.11c6.29 6.22 12.32 13.31 14.84 12.3s8.87-19.24 7.06-23.5a10.23 10.23 0 0 0 -6.06-5.5z" fill="#fff"/><path d="m596.62 344.44c11-2.28 14.31-17 14.31-17-15.36 0-24.39 6.61-24.39 6.61s-1.81 12.86 10.08 10.39z" fill="#fff"/><path d="m553.9 411.77c-2.93-10.49-9.51-13.45-14.81-14a20.54 20.54 0 0 0 -7.71.69c-6.79 25.94-9.52 34.72-.47 37.43s18.35-2.73 23-6.8c.46-9.04-.01-17.32-.01-17.32z" fill="#febd9d"/><path d="m671.17 437.65c-6.5 12.33-14.31 12.83-23.83 10.77-10.41-3.21-3.75-20.91 1.94-28.93a98.37 98.37 0 0 1 20.9-8.75c2.56 7.99 6.12 17.2.99 26.91z" fill="#febd9d"/><path d="m610.53 367.56a23.26 23.26 0 0 0 -27.44 2.72l1.61-6.84-8-2.13c-7.94 24.35-1.76 45.64 20.53 44.84l22.47-13.24s5.21-17.4-9.17-25.35zm-8.37 27.31h-.1a10 10 0 0 1 -5.93-18h.11a10 10 0 0 1 5.92 18z" fill="#f4f4f4" stroke="#ddd" stroke-linecap="round" stroke-linejoin="round"/><path d="m602.16 394.87a10 10 0 1 1 -6-18 10 10 0 0 0 5.93 18z" fill="#ddd" stroke="#ddd" stroke-linecap="round" stroke-linejoin="round"/><path d="m583.09 370.28c-5.63 6-9.85 15.17-6 25.93" fill="none" stroke="#ddd" stroke-linecap="round" stroke-linejoin="round"/><path d="m613.37 388c.71-13.75-11.92-26-28-19.48" fill="none" stroke="#ddd" stroke-linecap="round" stroke-linejoin="round"/><path d="m651.23 449.11c-2.14 0-6.3-1.29-7.55-1.71l-.27-.09a46 46 0 0 1 -10.22-5.12 53.13 53.13 0 0 1 -5.88-4.48 64.26 64.26 0 0 1 -16.92-24.28 18.33 18.33 0 0 1 -14.34-9.08c-1-2.24 1.08-7.3 1.08-7.3-2.66-3.25 1.06-6.94 3.39-5.95-3.15-4.86-5.57-8.35-2-10.26 2.63-1.41 19 9 23 14s27.81 24.68 27.81 24.68c9.19 7.25 19.36 29.54 1.9 29.59z" fill="#febd9d"/><path d="m649.27 419.5c7 6.42 8.15 11.88 8.15 11.88" fill="none" stroke="#ef8a66" stroke-linecap="round" stroke-linejoin="round" stroke-width=".75"/><path d="m596.05 404.35c-1-2.24 1.08-7.3 1.08-7.3-2.66-3.25 1.06-6.94 3.39-5.95-3.15-4.86-5.57-8.35-2-10.26 1.13-.61 4.82 1 9 3.37" fill="none" stroke="#ef8a66" stroke-linecap="round" stroke-linejoin="round" stroke-width=".75"/><path d="m617.75 291s-.84 10.32-.18 12.66c0 0-8.18 5.65-11.4 4.3a1.41 1.41 0 0 1 -.35-.21c-3-2.28-4.65-17-4.65-17s-11.5-1.55-13.7-6.54c0 0-9.3 1.39-7-6.08a7.23 7.23 0 0 1 -2.66.59 2.17 2.17 0 0 1 -2.35-1.85c-.64-3.22 8.34-4 8.34-4-2.11-4.63 4.06-7.71 10.14-1.83-2.2-3.27.67-5.72 6.54-3.59 6.44 2.34 12.33 8.69 10.88 13 0 0 5.67-.19 8.74 3.55 3.59 4.37-.19 6.57-2.35 7z" fill="#7f542d"/><path d="m605.82 307.78c-3-2.28-4.65-17-4.65-17s-11.5-1.55-13.7-6.54c0 0-9.3 1.39-7-6.08a7.23 7.23 0 0 1 -2.66.59 11.81 11.81 0 0 1 9.88-1.23c7.84 2.82 11.91 3.9 14.22 1.94s8 .55 5.81 6.42 4.11.7 5.27 7.84c.81 5.08-4.24 11.07-7.17 14.06z" fill="#704725"/><path d="m608.42 285.69a12.29 12.29 0 0 1 8.58 3.31" fill="none" stroke="#a56f42" stroke-linecap="round" stroke-linejoin="round" stroke-width=".75"/><path d="m608.84 288.61c3.11 2.31 4.27 6.72 4.23 9.58" fill="none" stroke="#a56f42" stroke-linecap="round" stroke-linejoin="round" stroke-width=".75"/><path d="m613.8 316.13s-1 9.2 0 12.79c0 0-3.39 17.32-16.13 18.2-6.51.44-9.7-3.62-11.24-7.71a24.54 24.54 0 0 1 -1.49-7.8s-7.61.7-12.41-8.26c-1.48-2.78-2.19-6.74-2.09-11.53a51.52 51.52 0 0 1 .74-7.47 89.35 89.35 0 0 1 9.28-26.22c.15 3.71 4.08 5.11 9 2.89 0 0-.66 6.29 8 3.85 0 0-.34 3.86 5.19 2.15 6.52-2 .64 9.48 6.21 17 0 0 5.6-6.1 10.46-2.29 6.11 4.77-.26 13.14-5.52 14.4z" fill="#febd9d"/><path d="m610.62 307.84c2-2.8 6.64-4.78 8.87-.78" fill="none" stroke="#ef8a66" stroke-linecap="round" stroke-linejoin="round" stroke-width=".75"/><path d="m609.93 310.25c4.64 2.74 6.07-3.93 1.69-3.52" fill="none" stroke="#ef8a66" stroke-linecap="round" stroke-linejoin="round" stroke-width=".75"/><path d="m578.89 313.91a7.34 7.34 0 0 0 8.79-4.22" fill="none" stroke="#ef8a66" stroke-linecap="round" stroke-linejoin="round" stroke-width=".75"/><path d="m613.8 316.13a8.82 8.82 0 0 1 -5.75-1.08" fill="none" stroke="#ef8a66" stroke-linecap="round" stroke-linejoin="round" stroke-width=".75"/><ellipse cx="597.11" cy="311.95" fill="#f4af90" rx="6.14" ry="3.73" transform="matrix(.93939379 -.34284005 .34284005 .93939379 -70.77 223.65)"/><path d="m575.67 310c-.57 1.57-2.74 2.27-5.23 1.87a51.52 51.52 0 0 1 .74-7.47c3.19 1.11 5.19 3.6 4.49 5.6z" fill="#f4af90"/><path d="m576.29 305.09a8.92 8.92 0 0 1 -2.54.37 9 9 0 0 1 -8.21-5.25" fill="none" stroke="#683f1d" stroke-linecap="round" stroke-linejoin="round"/><path d="m582.6 294.71a9.85 9.85 0 0 1 .16 1.73 8.35 8.35 0 0 1 -.17 1.74" fill="none" stroke="#683f1d" stroke-linecap="round" stroke-linejoin="round"/><circle cx="576.68" cy="297.19" fill="#683f1d" r="1.43"/><path d="m586.75 300.54a1.44 1.44 0 1 0 1.44-1.43 1.43 1.43 0 0 0 -1.44 1.43z" fill="#683f1d"/><path d="m586.75 295.76c-1.7 1.18-3.13 2.21-4.32 3.12-3.64 2.77-5.09 4.47-5.37 5.94-.21 1.13.28 2.14 1 3.38" fill="none" stroke="#ef8a66" stroke-linecap="round" stroke-linejoin="round" stroke-width=".75"/><path d="m589.16 288.32c.72-1.41 4.81 1.18 5.79 3.17s-7.01-.8-5.79-3.17z" fill="#7f542d"/><path d="m577.41 286.24c-1 1.05 5.4 2.43 6.17.8s-4.48-2.51-6.17-.8z" fill="#7f542d"/><path d="m587.68 305.37a.57.57 0 0 1 -.57.57.58.58 0 0 1 -.57-.57.57.57 0 0 1 .57-.57.56.56 0 0 1 .57.57z" fill="#f4af90"/><path d="m574.37 303.82a.57.57 0 1 1 -.56-.57.56.56 0 0 1 .56.57z" fill="#f4af90"/><path d="m576.38 301.41a.57.57 0 1 1 -1.14 0 .57.57 0 1 1 1.14 0z" fill="#f4af90"/><circle cx="590.31" cy="304.8" fill="#f4af90" r=".57"/><path d="m596.17 306.71a.58.58 0 0 1 -.57.57.57.57 0 0 1 -.57-.57.56.56 0 0 1 .57-.57.57.57 0 0 1 .57.57z" fill="#f4af90"/><path d="m593.48 307.23a.56.56 0 0 1 -.57.56.57.57 0 1 1 .57-.56z" fill="#f4af90"/><path d="m590.31 308.2a.57.57 0 1 1 -1.13 0 .57.57 0 1 1 1.13 0z" fill="#f4af90"/><path d="m564.72 296.44a9 9 0 0 1 15.38-6.44" fill="none" stroke="#683f1d" stroke-linecap="round" stroke-linejoin="round"/><circle cx="591.78" cy="303.25" fill="none" r="9.02" stroke="#683f1d" stroke-linecap="round" stroke-linejoin="round"/><path d="m600.8 303.25 8.04.73" fill="none" stroke="#683f1d" stroke-linecap="round" stroke-linejoin="round"/><path d="m596.64 327.1s-.26 10-10.21 12.31a24.54 24.54 0 0 1 -1.49-7.8c3.27-.15 9.87-2.46 11.7-4.51z" fill="#f4a789"/><path d="m596.94 273.2c5.11 1.1 10.21 4.93 10.21 8.4" fill="none" stroke="#a56f42" stroke-linecap="round" stroke-linejoin="round" stroke-width=".75"/><path d="m587.68 275.24c6.57.86 15.06 4.16 18 8.33" fill="none" stroke="#a56f42" stroke-linecap="round" stroke-linejoin="round" stroke-width=".75"/><path d="m545.79 422c-.6 11.32-16.68 28.25-33.44-7.09-8.72-18.38-9.71-42.59-12.8-61.92a59.51 59.51 0 0 0 -5.9-16.35c-3.26-5.65-11.54-17.94-8.91-18.82s10.29 8 10.29 8-8.91-18.25-5.52-19.05 11.42 15.48 11.42 15.48c-3.26-14.3-4.15-21.44-1.21-21.7 2.49-.22 6.29 14.32 8.58 20.53.84 2.28 2.11 1.38 2-.51s-3.21-20.11 2-15.71c3.6 3.06 6.52 25.52 6.52 25.52s2.18-1.58 4-6.71c1.51-4.2 5.9-3.43 5 4.58s-7.15 19-7.15 19c-.25 5.52 5.39 22 7.77 26.85s11.56 25.62 11.56 25.62 6.41 10.48 5.79 22.28z" fill="#febd9d"/><path d="m490.28 331c-3.52-5.8-7.47-12.59-5.54-13.24 2.64-.88 10.29 8 10.29 8s-8.91-18.25-5.52-19.05 11.42 15.48 11.42 15.48c-3.26-14.3-4.15-21.44-1.21-21.7 2.49-.22 6.29 14.32 8.58 20.53.84 2.28 2.11 1.38 2-.51s-3.21-20.11 2-15.71c3.6 3.06 6.52 25.52 6.52 25.52s2.18-1.58 4-6.71c1.51-4.2 5.9-3.43 5 4.58-.45 4.13-2.35 9.05-4.07 12.85" fill="none" stroke="#ef8a66" stroke-linecap="round" stroke-linejoin="round" stroke-width=".75"/><path d="m498 325.62c3.3-2.38 9.25-2.64 9.25-2.64" fill="none" stroke="#ef8a66" stroke-linecap="round" stroke-linejoin="round" stroke-width=".75"/><path d="m518.74 330.32s-6.81-1-8.85 5.76" fill="none" stroke="#ef8a66" stroke-linecap="round" stroke-linejoin="round" stroke-width=".75"/><path d="m546.13 417a89.87 89.87 0 0 0 -6.13-17.28" fill="none" stroke="#ef8a66" stroke-linecap="round" stroke-linejoin="round" stroke-width=".75"/><path d="m519.82 324.3s6.78 4 6.78 3.74 9.28-17.13 9.28-17.13l-9.11-4.2z" fill="none" stroke="#ddd" stroke-linecap="round" stroke-linejoin="round"/><path d="m507.27 311.57 11.47-2.82-4.43-24.33-12.21 2.65z" fill="none" stroke="#ddd" stroke-linecap="round" stroke-linejoin="round"/><path d="m486.63 285.46 12.68-2.49 5.1 22.83-10.4 1.76z" fill="none" stroke="#ddd" stroke-linecap="round" stroke-linejoin="round"/><path d="m467.46 308.74 10.6-8.25 11.83 18.65-8.5 6.62z" fill="none" stroke="#ddd" stroke-linecap="round" stroke-linejoin="round"/><path d="m382.44 454.37c-6.12 11.55-11.82 37.78-14.13 49.6 0 0 20 7.88 51.76 6.79s38.18-6.66 38.18-6.66 3.81-37.63-6.25-53.53z" fill="#fed81d"/><g style="clip-path:url(#b);fill:none;stroke-linecap:round;stroke-linejoin:round;stroke:#fff;stroke-width:.75"><path d="m504.08 395.56h5.15v5.15h-5.15z"/><path d="m479 395.56h5.15v5.15h-5.15z"/><path d="m453.91 395.56h5.15v5.15h-5.15z"/><path d="m428.83 395.56h5.15v5.15h-5.15z"/><path d="m403.75 395.56h5.15v5.15h-5.15z"/><path d="m378.66 395.56h5.15v5.15h-5.15z"/><path d="m353.58 395.56h5.15v5.15h-5.15z"/><path d="m504.08 427.38h5.15v5.15h-5.15z"/><path d="m479 427.38h5.15v5.15h-5.15z"/><path d="m453.91 427.38h5.15v5.15h-5.15z"/><path d="m428.83 427.38h5.15v5.15h-5.15z"/><path d="m403.75 427.38h5.15v5.15h-5.15z"/><path d="m378.66 427.38h5.15v5.15h-5.15z"/><path d="m353.58 427.38h5.15v5.15h-5.15z"/><path d="m504.08 459.21h5.15v5.15h-5.15z"/><path d="m479 459.21h5.15v5.15h-5.15z"/><path d="m453.91 459.21h5.15v5.15h-5.15z"/><path d="m428.83 459.21h5.15v5.15h-5.15z"/><path d="m403.75 459.21h5.15v5.15h-5.15z"/><path d="m378.66 459.21h5.15v5.15h-5.15z"/><path d="m353.58 459.21h5.15v5.15h-5.15z"/><path d="m504.08 491.04h5.15v5.15h-5.15z"/><path d="m479 491.04h5.15v5.15h-5.15z"/><path d="m453.91 491.04h5.15v5.15h-5.15z"/><path d="m428.83 491.04h5.15v5.15h-5.15z"/><path d="m403.75 491.04h5.15v5.15h-5.15z"/><path d="m378.66 491.04h5.15v5.15h-5.15z"/><path d="m353.58 491.04h5.15v5.15h-5.15z"/><path d="m504.08 522.86h5.15v5.15h-5.15z"/><path d="m479 522.86h5.15v5.15h-5.15z"/><path d="m453.91 522.86h5.15v5.15h-5.15z"/><path d="m428.83 522.86h5.15v5.15h-5.15z"/><path d="m403.75 522.86h5.15v5.15h-5.15z"/><path d="m378.66 522.86h5.15v5.15h-5.15z"/><path d="m353.58 522.86h5.15v5.15h-5.15z"/><path d="m336.31 377.07h10.29v10.29h-10.29z"/><path d="m362.01 377.07h10.29v10.29h-10.29z"/><path d="m387.71 377.07h10.29v10.29h-10.29z"/><path d="m413.41 377.07h10.29v10.29h-10.29z"/><path d="m439.11 377.07h10.29v10.29h-10.29z"/><path d="m464.8 377.07h10.29v10.29h-10.29z"/><path d="m490.5 377.07h10.29v10.29h-10.29z"/><path d="m516.2 377.07h10.29v10.29h-10.29z"/><path d="m336.31 408.9h10.29v10.29h-10.29z"/><path d="m362.01 408.9h10.29v10.29h-10.29z"/><path d="m387.71 408.9h10.29v10.29h-10.29z"/><path d="m413.41 408.9h10.29v10.29h-10.29z"/><path d="m439.11 408.9h10.29v10.29h-10.29z"/><path d="m464.8 408.9h10.29v10.29h-10.29z"/><path d="m490.5 408.9h10.29v10.29h-10.29z"/><path d="m516.2 408.9h10.29v10.29h-10.29z"/><path d="m336.31 440.72h10.29v10.29h-10.29z"/><path d="m362.01 440.72h10.29v10.29h-10.29z"/><path d="m387.71 440.72h10.29v10.29h-10.29z"/><path d="m413.41 440.72h10.29v10.29h-10.29z"/><path d="m439.11 440.72h10.29v10.29h-10.29z"/><path d="m464.8 440.72h10.29v10.29h-10.29z"/><path d="m490.5 440.72h10.29v10.29h-10.29z"/><path d="m516.2 440.72h10.29v10.29h-10.29z"/><path d="m336.31 472.55h10.29v10.29h-10.29z"/><path d="m362.01 472.55h10.29v10.29h-10.29z"/><path d="m387.71 472.55h10.29v10.29h-10.29z"/><path d="m413.41 472.55h10.29v10.29h-10.29z"/><path d="m439.11 472.55h10.29v10.29h-10.29z"/><path d="m464.8 472.55h10.29v10.29h-10.29z"/><path d="m490.5 472.55h10.29v10.29h-10.29z"/><path d="m516.2 472.55h10.29v10.29h-10.29z"/><path d="m336.31 504.38h10.29v10.29h-10.29z"/><path d="m362.01 504.38h10.29v10.29h-10.29z"/><path d="m387.71 504.38h10.29v10.29h-10.29z"/><path d="m413.41 504.38h10.29v10.29h-10.29z"/><path d="m439.11 504.38h10.29v10.29h-10.29z"/><path d="m464.8 504.38h10.29v10.29h-10.29z"/><path d="m490.5 504.38h10.29v10.29h-10.29z"/><path d="m516.2 504.38h10.29v10.29h-10.29z"/></g><path d="m390.79 446s-12.59 10.46-13.25 11.67c-8.25 13.17-32.69 23.7-44.28 9.77-14.78-17.78 16.92-32.44 16.92-32.44s3-6.07 3.1-6.48l32.92 6.48z" fill="#febd9d"/><path d="m465.38 391.77c-.87 6.51-6.4 46.13-9.15 55.18s-8.94 11.81-12.47 11.81c-2.13 0-10.57.28-20.6.65-6.58.23-13.85.52-20.45.78-16.67.66-25.17-2.53-25.17-2.53l.38-.71 7.24-13.32a42.87 42.87 0 0 1 -15.72.27 36.58 36.58 0 0 1 -4-.93c-5.93-1.72-10.4-6.73-13.1-10.64a37.27 37.27 0 0 1 -3-5.13 290.84 290.84 0 0 1 15.18-31.09c4.53-7.91 8.09-12.94 9.76-14.61 3.31-3.3 13.35-6.28 22.1-8.08l15.86-4.28s10.49-26.15 10.49-26.48 32.77-8.93 32.77-8.93a106.51 106.51 0 0 1 10.67 39.93 89.59 89.59 0 0 1 -.79 18.11z" fill="#c3dcf8"/><path d="m423.16 459.41c-6.58.23-13.85.52-20.45.78-16.67.66-25.17-2.53-25.17-2.53l.38-.71 7.24-13.32a282.2 282.2 0 0 0 13.25-30.87c.08-.24.18-.47.26-.7a17.18 17.18 0 0 1 2 8.61c-.21 7.8-14.88 28.32-3.72 32.92 10.79 4.41 19.14-3.09 26.21 5.82z" fill="#a7caf0"/><path d="m466.12 373.66c-5.18 4.42-11.11 10.84-12.44 17.93-2.49 13.18-20.45 25.78-38.92 10.56-15.39-12.68-27.42-16.11-50.29-6 4.53-7.91 8.09-12.94 9.76-14.61 3.31-3.3 13.35-6.28 22.1-8.08l15.86-4.28s3.21-55.68 3.21-56 36.07 7.82 36.07 7.82c7.53 15.62 14.03 42.21 14.65 52.66z" fill="#d0e5f7"/><path d="m437.19 369.14a30.61 30.61 0 0 0 7.34-1.61" fill="none" stroke="#83addf" stroke-linecap="round" stroke-linejoin="round" stroke-width=".75"/><path d="m385.16 443.63a282.2 282.2 0 0 0 13.25-30.87c.08-.24.18-.47.26-.7q1-2.83 2-5.78" fill="none" stroke="#83addf" stroke-linecap="round" stroke-linejoin="round" stroke-width=".75"/><path d="m333.28 467.46c-10.95-11.45-14.93-31.11-17.36-40.51-3-11.47-8.63-43.71-9.31-48.57s2.71-20.1 2.71-20.1c3.27-1.21 9.22 1.11 15 4.17l-1.37 5.88a32.38 32.38 0 0 1 -2.6 10.75 16.09 16.09 0 0 1 4.25 4.88l11.27-3c-2.35 6.17-5 13.68-4.94 16 .13 4.22 3.91 13.87 8.09 20.07s11.16 17.97 11.16 17.97c21.31 23.12 6.4 51.31-16.9 32.46z" fill="#febd9d"/><path d="m309.29 358.25s-3.37 15.25-2.7 20.1" fill="none" stroke="#ef8a66" stroke-linecap="round" stroke-linejoin="round" stroke-width=".75"/><path d="m312.4 336.59s4.22 27.31 5.67 36.93c-11.8 1.37-16.68-16.27-7.71-22.44-8.11-5.25-8.33-20.93 1.86-22.89-2.43-8.07 10-18.25 18.82-12.49 2.86-10.44 18.62-10.89 24.15-2.19l-39.56 10.49.78 11.33c-1.41.43-2.78.85-4.01 1.26z" fill="#ddd"/><path d="m319.26 376.68.58 8.49 44.64-11.75s2.36-19.76-5.2-57.94c-.18-1-.37-1.91-.58-2.89l-3.51.92-3.14.84-36.42 9.65.78 11.33" fill="#ededed" stroke="#ddd" stroke-linecap="round" stroke-linejoin="round"/><path d="m351.38 365.78s-32.84 11.55-32.84 11c0-.09-.19-1.31-.47-3.28-1.45-9.62-5.67-36.93-5.67-36.93 1.23-.41 2.57-.83 4-1.27 11.65-3.53 28.65-7.8 28.65-7.8z" fill="#ddd"/><path d="m320.3 344.02 17.56-4.33" fill="none" stroke="#fff" stroke-linecap="round" stroke-linejoin="round"/><path d="m321.53 350.99 20.19-4.57" fill="none" stroke="#fff" stroke-linecap="round" stroke-linejoin="round"/><path d="m325.39 357.92 12.47-3" fill="none" stroke="#fff" stroke-linecap="round" stroke-linejoin="round"/><path d="m308.6 378.89c3.26-7 10.62-14.74 13.4-12.8s-1.7 13-1.7 13a17.42 17.42 0 0 1 6.53 11.42s-15.46 6.37-18.23-11.62z" fill="#febd9d"/><path d="m308.6 378.89c3.26-7 10.62-14.74 13.4-12.8s-1.7 13-1.7 13a17.42 17.42 0 0 1 6.53 11.42" fill="none" stroke="#ef8a66" stroke-linecap="round" stroke-linejoin="round" stroke-width=".75"/><path d="m394.67 242.24c-3.35-10.77-5.42-18.19-7.4-23.2-2.75-7 .56-11.07 5.47-.53 2.17 4.67 4.77 10.4 4.77 10.4s8.22-1.4 12 1.69 6.58 10.31 7.72 22.42c0 0 8.37 17.06 11.21 23.31s16.41 33.72 23 44.69c6.09 17.34-30.72 31.15-36.07-7.88 0 0-6.42-19.66-7.88-27s-7.48-27.7-7.48-27.7-10.15-10.4-11.37-12-6-13.89-4-14.71 5.2 1.63 7.64 9.27z" fill="#febd9d"/><path d="m388.67 246.44c-1.21-1.63-6-13.89-4-14.71s5.2 1.63 7.64 9.27l2.34 1.24c-3.35-10.77-5.42-18.19-7.4-23.2-2.75-7 .56-11.07 5.47-.53 2.17 4.67 4.77 10.4 4.77 10.4s5.9-1 10 .56" fill="none" stroke="#ef8a66" stroke-linecap="round" stroke-linejoin="round" stroke-width=".75"/><path d="m397.51 228.91 2.07 4.77" fill="none" stroke="#ef8a66" stroke-linecap="round" stroke-linejoin="round" stroke-width=".75"/><path d="m402.58 228.62 2.09 4.62" fill="none" stroke="#ef8a66" stroke-linecap="round" stroke-linejoin="round" stroke-width=".75"/><path d="m407.32 229.37 2.09 4.63" fill="none" stroke="#ef8a66" stroke-linecap="round" stroke-linejoin="round" stroke-width=".75"/><path d="m443.93 319.37c6.7-2.1 12-1.14 13.89 6.84s-6.91 15-15.89 13.19z" fill="#b57724"/><path d="m448.71 327.52a25.52 25.52 0 0 1 -1.36 6.92 32.48 32.48 0 0 1 -10.15 14.13l-4 6.68s-29.85 6.11-29.42-40.64c-2.82-3.44-1.92-11 6.3-17 12.26-8.88 32.57 1.56 29.45 15.75-.03 0 9.9-.25 9.18 14.16z" fill="#bf8228"/><path d="m406.32 312.5c-1.75-6 3.81-12.8 5.74-13.77" fill="none" stroke="#9b621f" stroke-linecap="round" stroke-linejoin="round" stroke-width=".75"/><path d="m447.35 334.44a32.48 32.48 0 0 1 -10.15 14.13l-4 6.68s-29.85 6.11-29.42-40.64l10-13.76c-.24.58-4.25 19.61 3 36.48 6.06 14.18 25.37 4.8 30.57-2.89z" fill="#b57724"/><path d="m437.19 348.59a54.24 54.24 0 0 0 -2.69 17.19c-9.46 4.81-19.05 5.92-28.83 1.77 0 0 .53-2.91.89-6.08a37.21 37.21 0 0 0 .31-5.91c-8.22.11-13.76-6.28-13.95-15.67a29.84 29.84 0 0 1 1.33-9.18 38.45 38.45 0 0 1 1.64-4.45s-1.93-2.3-1.66-4.05 5.8-4.43 5.8-4.43c4.88-9.5 13.74-17 13.74-17s-6.68 8.16-4.9 21.32c0 0 7.07-4.78 8.56 3.56 1.26 7.05-4.32 10.6-6.34 11.63a7 7 0 0 1 -.66.31s1.76 12.52 13.4 14.24a17 17 0 0 0 13.36-3.25z" fill="#febd9d"/><circle cx="404.33" cy="317.13" fill="#683f1d" r="1.43"/><path d="m428.26 313.74c9.41-3 12 14.45 8.39 21-3.08 5.57-16.53 4.55-17.71-5.4s7.16-14.91 9.32-15.6z" fill="#b57724"/><path d="m427.08 318.16c1.79-3 4.66-2.12 6.16.11s2.91 8.66-2.06 9.2c-6.1.66-6.12-5.93-4.1-9.31z" fill="#bf8228"/><path d="m406.6 328.19c2.49-3.26 6.13-3.44 7.45-1.63" fill="none" stroke="#ef8a66" stroke-linecap="round" stroke-linejoin="round" stroke-width=".75"/><path d="m407.05 327.65c5.37-1.32 4.65 7.61-1.51 4.47" fill="none" stroke="#ef8a66" stroke-linecap="round" stroke-linejoin="round" stroke-width=".75"/><path d="m411.1 337.33a10.79 10.79 0 0 1 -6 .32" fill="none" stroke="#ef8a66" stroke-linecap="round" stroke-linejoin="round" stroke-width=".75"/><path d="m426.57 314.54s-8.7 10.79-2.07 16.16 11.32-1.65 11.32-1.65" fill="none" stroke="#9b621f" stroke-linecap="round" stroke-linejoin="round" stroke-width=".75"/><path d="m421.45 315.7a29 29 0 0 1 -4.87-12.9" fill="none" stroke="#9b621f" stroke-linecap="round" stroke-linejoin="round" stroke-width=".75"/><path d="m406.67 309.62c1.24-1.68 4.77 1.73 4.77 4.58 0 1.44-6.7-1.96-4.77-4.58z" fill="#bf8228"/><path d="m413.78 300.82s15.53-8.51 23.87 13.72" fill="none" stroke="#9b621f" stroke-linecap="round" stroke-linejoin="round" stroke-width=".75"/><path d="m419.36 302.32c3.45 2.18 8.65 9 8.65 9" fill="none" stroke="#9b621f" stroke-linecap="round" stroke-linejoin="round" stroke-width=".75"/><path d="m428.3 316.79c-.5 2.38-2.91 9.26 5.58 8.62" fill="none" stroke="#9b621f" stroke-linecap="round" stroke-linejoin="round" stroke-width=".75"/><path d="m447.69 333.38s9.07-4.23 6.79-11.18" fill="none" stroke="#9b621f" stroke-linecap="round" stroke-linejoin="round" stroke-width=".75"/><path d="m448.68 324.29c1.51-.47 3.16-3.57 3.16-3.57" fill="none" stroke="#9b621f" stroke-linecap="round" stroke-linejoin="round" stroke-width=".75"/><path d="m415.05 334.31c2.36 2 7.44 12.39 25.74 6.11" fill="none" stroke="#9b621f" stroke-linecap="round" stroke-linejoin="round" stroke-width=".75"/><path d="m436.18 317.67c9.89 2.12 8.22 12.49 5.75 16.64" fill="none" stroke="#9b621f" stroke-linecap="round" stroke-linejoin="round" stroke-width=".75"/><path d="m397.33 330.19c.41 1.69 2.53 2.63 4.74 2.09s3.65-2.34 3.24-4-2.54-2.63-4.74-2.09-3.65 2.31-3.24 4z" fill="#f4af90"/><path d="m418.17 345.91c6 3.7 16.66 3.07 23.33-1.5" fill="none" stroke="#9b621f" stroke-linecap="round" stroke-linejoin="round" stroke-width=".75"/><path d="m414.05 303.38c-1 5.65.32 14.24 1.75 16.42" fill="none" stroke="#9b621f" stroke-linecap="round" stroke-linejoin="round" stroke-width=".75"/><path d="m416.58 332.08c3.54 3.62 12.16 7.47 19.72 3.22" fill="none" stroke="#9b621f" stroke-linecap="round" stroke-linejoin="round" stroke-width=".75"/><path d="m399.29 333.1a7.08 7.08 0 0 1 -6.21 3.34 31.07 31.07 0 0 1 .69-4c.09-.36.19-.74.3-1.12a7.94 7.94 0 0 0 5.22 1.78z" fill="#fff" stroke="#ef8a66" stroke-linecap="round" stroke-linejoin="round" stroke-width=".75"/><path d="m395.9 326.26s-2.11-2.69-1.66-4.05 3.93-3.72 5.8-4.43" fill="none" stroke="#ef8a66" stroke-linecap="round" stroke-linejoin="round" stroke-width=".75"/><path d="m414 353.27a8.39 8.39 0 0 1 -7.48 8.2 37.21 37.21 0 0 0 .31-5.91c3.49.52 7.17-2.29 7.17-2.29z" fill="#f4a789"/><path d="m236.19 167.72a13.9 13.9 0 0 1 -1.69-.21l-21.6 29-.63-.15-15.07-3.74c-4.7 2-6.72-2.58-5.26-5.94-.56.58-4.22.22-2.57-3.58-3.47.9-6.49-6.82-1.67-9.17-4.14.48-2.51-8.71 1.89-7-3.49-2.28 1.61-12.23 7.61-8.93-2.23-2.28 1.13-7.48 5-5.83-2.6-4.25 7-11.6 12.35-4.94.4-3 4.31-4.05 6-.79-.13-3.79 6.94-4.71 6.41 1.44 2.33-3 8.08 1.91 5.15 5.88 3.32-3.81 10.87 1.57 6.77 6.09 4.63 1.67 4.22 8.24-2.69 7.87z" fill="#604730"/><path d="m236.19 167.72a13.9 13.9 0 0 1 -1.69-.21l-21.6 29-.63-.15-3.45-5.77c-9.75.74-12.44-5.92-8.59-11.06-3-1.44-1.91-11.59 4.3-11-1.69-3.35 2.51-12.72 11.5-8.41 1-3.87 7-5.48 10.73 0 1.55-3.38 10.96-3.54 9.43 7.6z" fill="#473526"/><path d="m227.67 214.21c-1.39 14-22.43 11.1-21.52 1.74a77.55 77.55 0 0 0 -1.15-13.61c-5-.25-7.92-2.31-7.75-7.59s6.6-9.48 13.53-4.78a10.79 10.79 0 0 0 -1.49-10.48c-3.89-5.49 1.8-12.49 7.08-12.49s16 .25 15.84-5.61a88.71 88.71 0 0 1 9.22 21.48c.09.31.17.62.25.93.46 1.78.86 3.62 1.17 5.48.06.34.11.69.17 1s.08.49.11.74c2.23 15.1-.68 24.38-15.46 23.19z" fill="#b25e47"/><path d="m223.9 181a1.44 1.44 0 1 0 1.43-1.43 1.44 1.44 0 0 0 -1.43 1.43z" fill="#683f1d"/><path d="m233.55 178.1a1.44 1.44 0 1 0 2.87 0 1.44 1.44 0 0 0 -2.87 0z" fill="#683f1d"/><path d="m208.82 198c-4.1 2.17-6.27-3.28-1.35-4.1a5 5 0 0 0 -7.23 1.74" fill="none" stroke="#934735" stroke-linecap="round" stroke-linejoin="round" stroke-width=".75"/><path d="m230.18 170.49c-.4 3.35-.48 7.09 0 7.61s6.46 4.61 7.22 5.12-.8 2.73-3.21 3.58" fill="none" stroke="#934735" stroke-linecap="round" stroke-linejoin="round" stroke-width=".75"/><path d="m228.92 201.77c2.83 1.71 9.41-5.18 6.86-7.88-4.36-4.61-8.97 6.6-6.86 7.88z" fill="#fff" stroke="#934735" stroke-linecap="round" stroke-linejoin="round" stroke-width=".75"/><path d="m216.38 173.19c3.15-5.07 8.24-6.29 8.87-4.4 1.2 3.59-11.45 8.55-8.87 4.4z" fill="#604730"/><path d="m232.37 172.41c0-1.94 5 .33 5.54 1.76s-5.58.94-5.54-1.76z" fill="#604730"/><path d="m228.05 191.08c-.5 2.11-3.43 3.23-6.54 2.5s-5.24-3-4.75-5.15 3.43-3.23 6.54-2.5 5.24 3.07 4.75 5.15z" fill="#a0503d"/><path d="m243 190.27a3.65 3.65 0 0 1 -3.49-1.2c-1.23-1.65-.35-4.36 1.9-6.25.09.31.17.62.25.93.46 1.78.86 3.62 1.17 5.48.08.34.17.69.17 1.04z" fill="#a0503d"/><path d="m261.31 460.27h.05s4.17-8.83-2.35-13.32c-4.89-3.37-15.7-2.71-17.46-5.83-.46-.81 3.77-8.3 9.45-17.63 7.54-12.33 17.64-27.87 22.86-35.36 9.14-13.13 14.22-27.39-1.55-44.13-9.12-7.73-22.57 1.75-30.68 23.5-2.92 7.85-13.54 35.78-18.06 47.6-4 10.47-6.76 17.3-7.95 19.29-.19.33-.42.73-.65 1.16-2.78 5.23-8 17.72-5.46 23.12" fill="#b25e47"/><path d="m261.36 460.26s-48.17 4.07-51.85-1.57c-3.53-5.41 3.61-20 6.11-24.28 1.19-2 3.92-8.82 7.95-19.29 8.68-1.4 19.28-.68 27.43 8.36-5.68 9.33-9.91 16.82-9.45 17.63 1.76 3.12 12.57 2.46 17.46 5.83 6.52 4.49 2.35 13.32 2.35 13.32z" fill="#683f1d"/><path d="m242.36 442a84 84 0 0 1 -10.73-5.36c-4.49-2.73-10.86-2.92-16.63-1.1.22-.42.44-.78.62-1.09 1.19-2 3.92-8.82 7.95-19.29 8.68-1.4 19.28-.68 27.43 8.36-5.68 9.33-9.91 16.82-9.45 17.63a2.61 2.61 0 0 0 .81.85z" fill="#fff"/><path d="m244.3 445.68c5.29-7.35 13.51-11 13.62-6.62s-12.26 8.69-12.26 8.69" fill="none" stroke="#683f1d" stroke-linecap="round" stroke-linejoin="round" stroke-width=".75"/><path d="m244.3 443.62c-.43-6.15 6.68-15.48 9.79-14.42 4.26 1.46-5.22 12-11.13 16.79" fill="none" stroke="#683f1d" stroke-linecap="round" stroke-linejoin="round" stroke-width=".75"/><path d="m328.73 145.94c2.58-9 3.29-19.1 6-19.48s1.73 7.33 1.73 7.33l2.59 3.07-9.11 11.14z" fill="#b25e47"/><path d="m330.3 139.51c1.46-6.81 2.37-12.76 4.46-13 2.75-.38 1.73 7.33 1.73 7.33" fill="none" stroke="#934735" stroke-linecap="round" stroke-linejoin="round" stroke-width=".75"/><path d="m364.15 141.66a48.41 48.41 0 0 1 -6 3.88s-5.64 12.17-12.75 14.46c0 0-5.8 17.31-13 34.16s-26.23 33.2-26.23 33.2c-26.11 15.9-47.54-15.36-16.3-34.36a60.79 60.79 0 0 0 9-7.2c17.34-17.15 44.7-63.67 47.43-67.87s5.29-3.28 3.1 3.1c-2.11 6.19-3.72 11-3.81 11.31.43-.44 11.6-11.65 14-13.68 2.24-1.86 5.66-.18 1.64 5.84 4-5.2 7.83-4.62 4 2.74-2.37 4.55-7.89 11.6-8.23 12 .53-.27 9.46-4.94 12-4.41s-.89 3.97-4.85 6.83z" fill="#b25e47"/><path d="m334.62 136.75c6.14-9.72 10.64-17.27 11.67-18.85 2.74-4.19 5.29-3.28 3.1 3.1-2.11 6.19-3.72 11-3.81 11.31.43-.44 11.6-11.65 14-13.68 2.24-1.86 5.66-.18 1.64 5.84 4-5.2 7.83-4.62 4 2.74-2.37 4.55-7.89 11.6-8.23 12 .53-.27 9.46-4.94 12-4.41s-1 4-4.94 6.81a48.41 48.41 0 0 1 -6 3.88" fill="none" stroke="#934735" stroke-linecap="round" stroke-linejoin="round" stroke-width=".75"/><path d="m361.25 124.47c-4.29 6-10.49 13.11-10.49 13.11" fill="none" stroke="#934735" stroke-linecap="round" stroke-linejoin="round" stroke-width=".75"/><path d="m142.16 400.48c-.67 3.38 3.4 9.59 13.89 12.35l2.68-18.93a34 34 0 0 0 -16.57 6.58z" fill="#83addf"/><path d="m152.71 393.9c-.37 20.24-1.5 28.31-1.5 29.62 0 0-13.5 34.7-17.44 62.65 0 0 7.88 13.88 31.14 8.07 0 0 17.07-48 20.63-60.59s4.13-30.29 4.13-30.29z" fill="#b25e47"/><path d="m133.73 269.42a12.41 12.41 0 0 0 6.44 7.27l5.36-8.14a19.26 19.26 0 0 0 -11.8.87z" fill="#f7ad2b"/><path d="m142.05 265.84c-9.18 13.19-18.89 28.6-14.78 41.05s26.49 15.08 40.2 0l5-34.54z" fill="#b25e47"/><path d="m164.88 297.31c-5.74 14-15.51 52.36-22.72 103.17 0 0 32.37-2 48.24 9.88.45-.75 8.39-47 9.29-48.67s6.44-1.94 7.79-1.05 31.65 19.45 35 20.52c18.61 5.84 39.52-25.53 29.84-37.16-4.13-5-15.58-15.87-32.65-45.07z" fill="#a7caf0"/><g style="clip-path:url(#c);fill:none;stroke-linecap:round;stroke-linejoin:round;stroke:#fff;stroke-width:.75"><path d="m268.27 287.04h5.15v5.15h-5.15z"/><path d="m243.18 287.04h5.15v5.15h-5.15z"/><path d="m218.1 287.04h5.15v5.15h-5.15z"/><path d="m193.02 287.04h5.15v5.15h-5.15z"/><path d="m167.93 287.04h5.15v5.15h-5.15z"/><path d="m142.85 287.04h5.15v5.15h-5.15z"/><path d="m117.76 287.04h5.15v5.15h-5.15z"/><path d="m268.27 318.87h5.15v5.15h-5.15z"/><path d="m243.18 318.87h5.15v5.15h-5.15z"/><path d="m218.1 318.87h5.15v5.15h-5.15z"/><path d="m193.02 318.87h5.15v5.15h-5.15z"/><path d="m167.93 318.87h5.15v5.15h-5.15z"/><path d="m142.85 318.87h5.15v5.15h-5.15z"/><path d="m117.76 318.87h5.15v5.15h-5.15z"/><path d="m268.27 350.69h5.15v5.15h-5.15z"/><path d="m243.18 350.69h5.15v5.15h-5.15z"/><path d="m218.1 350.69h5.15v5.15h-5.15z"/><path d="m193.02 350.69h5.15v5.15h-5.15z"/><path d="m167.93 350.69h5.15v5.15h-5.15z"/><path d="m142.85 350.69h5.15v5.15h-5.15z"/><path d="m117.76 350.69h5.15v5.15h-5.15z"/><path d="m268.27 382.52h5.15v5.15h-5.15z"/><path d="m243.18 382.52h5.15v5.15h-5.15z"/><path d="m218.1 382.52h5.15v5.15h-5.15z"/><path d="m193.02 382.52h5.15v5.15h-5.15z"/><path d="m167.93 382.52h5.15v5.15h-5.15z"/><path d="m142.85 382.52h5.15v5.15h-5.15z"/><path d="m117.76 382.52h5.15v5.15h-5.15z"/><path d="m268.27 414.35h5.15v5.15h-5.15z"/><path d="m243.18 414.35h5.15v5.15h-5.15z"/><path d="m218.1 414.35h5.15v5.15h-5.15z"/><path d="m193.02 414.35h5.15v5.15h-5.15z"/><path d="m167.93 414.35h5.15v5.15h-5.15z"/><path d="m142.85 414.35h5.15v5.15h-5.15z"/><path d="m117.76 414.35h5.15v5.15h-5.15z"/><path d="m100.5 268.55h10.29v10.29h-10.29z"/><path d="m126.19 268.55h10.29v10.29h-10.29z"/><path d="m151.89 268.55h10.29v10.29h-10.29z"/><path d="m177.59 268.55h10.29v10.29h-10.29z"/><path d="m203.29 268.55h10.29v10.29h-10.29z"/><path d="m228.99 268.55h10.29v10.29h-10.29z"/><path d="m254.69 268.55h10.29v10.29h-10.29z"/><path d="m280.39 268.55h10.29v10.29h-10.29z"/><path d="m100.5 300.38h10.29v10.29h-10.29z"/><path d="m126.19 300.38h10.29v10.29h-10.29z"/><path d="m151.89 300.38h10.29v10.29h-10.29z"/><path d="m177.59 300.38h10.29v10.29h-10.29z"/><path d="m203.29 300.38h10.29v10.29h-10.29z"/><path d="m228.99 300.38h10.29v10.29h-10.29z"/><path d="m254.69 300.38h10.29v10.29h-10.29z"/><path d="m280.39 300.38h10.29v10.29h-10.29z"/><path d="m100.5 332.21h10.29v10.29h-10.29z"/><path d="m126.19 332.21h10.29v10.29h-10.29z"/><path d="m151.89 332.21h10.29v10.29h-10.29z"/><path d="m177.59 332.21h10.29v10.29h-10.29z"/><path d="m203.29 332.21h10.29v10.29h-10.29z"/><path d="m228.99 332.21h10.29v10.29h-10.29z"/><path d="m254.69 332.21h10.29v10.29h-10.29z"/><path d="m280.39 332.21h10.29v10.29h-10.29z"/><path d="m100.5 364.03h10.29v10.29h-10.29z"/><path d="m126.19 364.03h10.29v10.29h-10.29z"/><path d="m151.89 364.03h10.29v10.29h-10.29z"/><path d="m177.59 364.03h10.29v10.29h-10.29z"/><path d="m203.29 364.03h10.29v10.29h-10.29z"/><path d="m228.99 364.03h10.29v10.29h-10.29z"/><path d="m254.69 364.03h10.29v10.29h-10.29z"/><path d="m280.39 364.03h10.29v10.29h-10.29z"/><path d="m100.5 395.86h10.29v10.29h-10.29z"/><path d="m126.19 395.86h10.29v10.29h-10.29z"/><path d="m151.89 395.86h10.29v10.29h-10.29z"/><path d="m177.59 395.86h10.29v10.29h-10.29z"/><path d="m203.29 395.86h10.29v10.29h-10.29z"/><path d="m228.99 395.86h10.29v10.29h-10.29z"/><path d="m254.69 395.86h10.29v10.29h-10.29z"/><path d="m280.39 395.86h10.29v10.29h-10.29z"/></g><path d="m197.23 222.29c7.79-10.23 18.62-15.68 36.32-6.32 0 .03-23.83 11.25-36.32 6.32z" fill="#fff"/><path d="m306.85 235.37s-41.19 15-43.68 18-9.3 25.8-12.64 37.58-6.37 14.63-6.37 14.63-28.8-4.22-49.44-2.59-30.8 1.12-33.2.09-2.84-4.9-1.46-9.11c.13-.4.28-.86.44-1.38 1.64-5 5-15.14 5-15.14a192.59 192.59 0 0 0 -23.54-6.8 70.81 70.81 0 0 0 -8.27-1.28 339.42 339.42 0 0 1 21.84-26.66c2.81-3 5.79-5.92 8.78-8.58 9-8 18-14 22.52-15 6-1.38 14.27.11 26.38-1.17 23.64-2.5 56.67-11.75 76.62-25.06a125 125 0 0 1 7 11.36 106.28 106.28 0 0 1 9.31 23s1.05 5.18.71 8.11z" fill="#fed81d"/><path d="m176.84 240.84-11.37 36.66a192.59 192.59 0 0 0 -23.54-6.8c3.06-4.67 8.08-7.73 14-5.83 9.58 3.13 10.77-23.31 20.91-24.03z" fill="#fcc71f"/><path d="m296.77 204.33c-17.33.93-45.89 15.49-58.54 33.15-14.84 20.72-36.19 18-46.08 3.36-7.36-10.85-15.31-9.47-27.87-6.66 9-8 18-14 22.52-15 6-1.38 14.27.11 26.38-1.17 23.64-2.5 56.67-11.75 76.62-25.06a125 125 0 0 1 6.97 11.38z" fill="#ffe05c"/><path d="m178.36 235.92-1.52 4.92-11.37 36.66" fill="none" stroke="#f7ad2b" stroke-linecap="round" stroke-linejoin="round" stroke-width=".75"/><path d="m212 327.52a82.41 82.41 0 0 0 23.58-.72" fill="none" stroke="#83addf" stroke-linecap="round" stroke-linejoin="round" stroke-width=".75"/></svg>